<?xml version="1.0" encoding="UTF-8"?>
<svg id="Layer_2" data-name="Layer 2" xmlns="http://www.w3.org/2000/svg" viewBox="0 0 26.62 17.3">
  <defs>
    <style>
      .cls-1 {
        fill: #124ec2;
      }

      .cls-2 {
        isolation: isolate;
      }
    </style>
  </defs>
  <g id="Member_Hub" data-name="Member Hub" class="cls-2">
    <g id="Member_Hub-2" data-name="Member Hub">
      <path class="cls-1" d="M13.5,9.86c2.03,0,3.68-1.65,3.68-3.68s-1.65-3.68-3.68-3.68-3.68,1.65-3.68,3.68,1.65,3.68,3.68,3.68Zm3.09-.47c-1.39,1.49-4.56,1.62-6.12,.04-1.97,.96-3.02,3.23-3.19,4.64,1.16,1.75,3.85,3.23,6.29,3.23s5.34-1.66,6.17-3.19c0-2.02-1.63-4-3.15-4.72Zm-7.31-.85s-.46-.81-.43-1.66c-1.56,.7-3.81,.73-4.98-.26C1.67,7.4,.17,10.37,0,13.26c1.83,1.09,4.01,1.39,6.08,1.49-.31-3.9,3.19-6.21,3.19-6.21Zm17.35,4.6c-.17-2.87-1.85-5.71-3.87-6.6-1.17,.98-3.41,.95-4.98,.25,.04,.85-.43,1.65-.43,1.65,0,0,3.66,2.28,3.19,6.18,2.07-.1,4.25-.4,6.08-1.48ZM6.22,6.07c1.68,0,3.03-1.36,3.03-3.03S7.9,0,6.22,0,3.19,1.36,3.19,3.03s1.36,3.03,3.03,3.03Zm14.54,0c1.68,0,3.03-1.36,3.03-3.03s-1.36-3.03-3.03-3.03-3.03,1.36-3.03,3.03,1.36,3.03,3.03,3.03Z"/>
    </g>
  </g>
</svg>