<svg xmlns="http://www.w3.org/2000/svg" xmlns:xlink="http://www.w3.org/1999/xlink"><symbol viewBox="0 0 257 300" id="bars" xmlns="http://www.w3.org/2000/svg"><path d="M257.143 225v21.429c0 5.859-4.855 10.714-10.714 10.714H10.715c-5.859 0-10.714-4.855-10.714-10.714V225c0-5.859 4.855-10.714 10.714-10.714h235.714c5.859 0 10.714 4.855 10.714 10.714zm0-85.714v21.429c0 5.859-4.855 10.714-10.714 10.714H10.715c-5.859 0-10.714-4.855-10.714-10.714v-21.429c0-5.859 4.855-10.714 10.714-10.714h235.714c5.859 0 10.714 4.855 10.714 10.714zm0-85.715V75c0 5.859-4.855 10.714-10.714 10.714H10.715C4.856 85.714.001 80.859.001 75V53.571c0-5.859 4.855-10.714 10.714-10.714h235.714c5.859 0 10.714 4.855 10.714 10.714z"/></symbol><symbol viewBox="0 0 448 512" id="calendar-check" xmlns="http://www.w3.org/2000/svg"><path d="M400 64h-48V12c0-6.627-5.373-12-12-12h-8c-6.627 0-12 5.373-12 12v52H128V12c0-6.627-5.373-12-12-12h-8c-6.627 0-12 5.373-12 12v52H48C21.49 64 0 85.49 0 112v352c0 26.51 21.49 48 48 48h352c26.51 0 48-21.49 48-48V112c0-26.51-21.49-48-48-48zM48 96h352c8.822 0 16 7.178 16 16v48H32v-48c0-8.822 7.178-16 16-16zm352 384H48c-8.822 0-16-7.178-16-16V192h384v272c0 8.822-7.178 16-16 16zm-66.467-194.937l-134.791 133.71c-4.7 4.663-12.288 4.642-16.963-.046l-67.358-67.552c-4.683-4.697-4.672-12.301.024-16.985l8.505-8.48c4.697-4.683 12.301-4.672 16.984.024l50.442 50.587 117.782-116.837c4.709-4.671 12.313-4.641 16.985.068l8.458 8.527c4.672 4.709 4.641 12.313-.068 16.984z"/></symbol><symbol viewBox="0 0 320 512" id="caret-down" xmlns="http://www.w3.org/2000/svg"><path d="M31.3 192h257.3c17.8 0 26.7 21.5 14.1 34.1L174.1 354.8c-7.8 7.8-20.5 7.8-28.3 0L17.2 226.1C4.6 213.5 13.5 192 31.3 192z"/></symbol><symbol viewBox="0 0 512 512" id="caret-right" xmlns="http://www.w3.org/2000/svg"><path d="M256 8c137 0 248 111 248 248S393 504 256 504 8 393 8 256 119 8 256 8zm-27.5 379.5l123-123c4.7-4.7 4.7-12.3 0-17l-123-123c-7.6-7.6-20.5-2.2-20.5 8.5v246c0 10.7 12.9 16.1 20.5 8.5z"/></symbol><symbol viewBox="0 0 512 382" id="check" xmlns="http://www.w3.org/2000/svg"><path d="M173.898 374.404l-166.4-166.4c-9.997-9.997-9.997-26.206 0-36.204l36.203-36.204c9.997-9.998 26.207-9.998 36.204 0L192 247.69 432.095 7.596c9.997-9.997 26.207-9.997 36.204 0L504.502 43.8c9.997 9.997 9.997 26.206 0 36.204l-294.4 294.401c-9.998 9.997-26.207 9.997-36.204-.001z" fill="#A859A8" fill-rule="nonzero"/></symbol><symbol viewBox="0 0 14 11" id="email" xmlns="http://www.w3.org/2000/svg"><path d="M12.687.5c.365 0 .675.128.93.383s.383.565.383.93v7.875c0 .364-.128.674-.383.93s-.565.382-.93.382H1.312a1.27 1.27 0 0 1-.93-.383A1.266 1.266 0 0 1 0 9.687V1.814c0-.365.128-.675.383-.93S.948.5 1.313.5zm0 1.313H1.312v1.12a471.2 471.2 0 0 0 3.692 2.899l.246.219c.365.31.656.528.875.656.346.237.638.356.875.356s.529-.119.875-.356c.219-.128.51-.346.875-.656l.246-.219c1.823-1.404 3.053-2.37 3.691-2.898zM1.312 9.688h11.375V4.602L9.516 7.117c-.456.383-.83.656-1.121.82-.493.292-.958.438-1.395.438-.438 0-.911-.146-1.422-.437-.273-.165-.647-.438-1.121-.82L1.312 4.601z" fill="#fff" fill-rule="evenodd"/></symbol><symbol viewBox="0 0 448 512" id="facebook" xmlns="http://www.w3.org/2000/svg"><path d="M448 56.7v398.5c0 13.7-11.1 24.7-24.7 24.7H309.1V306.5h58.2l8.7-67.6h-67v-43.2c0-19.6 5.4-32.9 33.5-32.9h35.8v-60.5c-6.2-.8-27.4-2.7-52.2-2.7-51.6 0-87 31.5-87 89.4v49.9h-58.4v67.6h58.4V480H24.7C11.1 480 0 468.9 0 455.3V56.7C0 43.1 11.1 32 24.7 32h398.5c13.7 0 24.8 11.1 24.8 24.7z"/></symbol><symbol viewBox="0 0 384 512" id="file-pdf" xmlns="http://www.w3.org/2000/svg"><path d="M181.9 256.1c-5-16-4.9-46.9-2-46.9 8.4 0 7.6 36.9 2 46.9zm-1.7 47.2c-7.7 20.2-17.3 43.3-28.4 62.7 18.3-7 39-17.2 62.9-21.9-12.7-9.6-24.9-23.4-34.5-40.8zM86.1 428.1c0 .8 13.2-5.4 34.9-40.2-6.7 6.3-29.1 24.5-34.9 40.2zM248 160h136v328c0 13.3-10.7 24-24 24H24c-13.3 0-24-10.7-24-24V24C0 10.7 10.7 0 24 0h200v136c0 13.2 10.8 24 24 24zm-8 171.8c-20-12.2-33.3-29-42.7-53.8 4.5-18.5 11.6-46.6 6.2-64.2-4.7-29.4-42.4-26.5-47.8-6.8-5 18.3-.4 44.1 8.1 77-11.6 27.6-28.7 64.6-40.8 85.8-.1 0-.1.1-.2.1-27.1 13.9-73.6 44.5-54.5 68 5.6 6.9 16 10 21.5 10 17.9 0 35.7-18 61.1-61.8 25.8-8.5 54.1-19.1 79-23.2 21.7 11.8 47.1 19.5 64 19.5 29.2 0 31.2-32 19.7-43.4-13.9-13.6-54.3-9.7-73.6-7.2zM377 105L279 7c-4.5-4.5-10.6-7-17-7h-6v128h128v-6.1c0-6.3-2.5-12.4-7-16.9zm-74.1 255.3c4.1-2.7-2.5-11.9-42.8-9 37.1 15.8 42.8 9 42.8 9z"/></symbol><symbol viewBox="0 0 16 13" id="home" xmlns="http://www.w3.org/2000/svg"><path d="M15.23 6.34c.055.036.082.082.082.137s-.018.109-.054.164l-.547.683c-.037.037-.087.06-.15.069s-.114-.005-.15-.041L14 7.023v5.414a.426.426 0 0 1-.123.315.426.426 0 0 1-.315.123H8.97c-.055 0-.105-.023-.15-.068s-.069-.096-.069-.15v-3.5H7v3.5c0 .054-.023.104-.068.15s-.096.068-.15.068H2.186a.426.426 0 0 1-.314-.123.426.426 0 0 1-.123-.315V7.023l-.41.329c-.037.036-.087.05-.15.04s-.114-.031-.15-.068l-.548-.683a.3.3 0 0 1-.055-.164c0-.054.028-.1.083-.137L7.19.87c.2-.164.429-.246.684-.246.255 0 .483.082.684.246l4.128 3.363v-1.64a.21.21 0 0 1 .069-.15.21.21 0 0 1 .15-.069h.875a.21.21 0 0 1 .15.068.21.21 0 0 1 .069.15v2.735zm-2.543 5.223V5.93L8.012 2.102c-.091-.073-.183-.073-.274 0L3.062 5.93v5.633h2.625v-3.5c0-.055.023-.105.069-.15s.096-.07.15-.07h3.938a.21.21 0 0 1 .15.07.21.21 0 0 1 .068.15v3.5z" fill="#373737" fill-rule="evenodd"/></symbol><symbol viewBox="0 0 448 512" id="instagram" xmlns="http://www.w3.org/2000/svg"><path d="M224.1 141c-63.6 0-114.9 51.3-114.9 114.9s51.3 114.9 114.9 114.9S339 319.5 339 255.9 287.7 141 224.1 141zm0 189.6c-41.1 0-74.7-33.5-74.7-74.7s33.5-74.7 74.7-74.7 74.7 33.5 74.7 74.7-33.6 74.7-74.7 74.7zm146.4-194.3c0 14.9-12 26.8-26.8 26.8-14.9 0-26.8-12-26.8-26.8s12-26.8 26.8-26.8 26.8 12 26.8 26.8zm76.1 27.2c-1.7-35.9-9.9-67.7-36.2-93.9-26.2-26.2-58-34.4-93.9-36.2-37-2.1-147.9-2.1-184.9 0-35.8 1.7-67.6 9.9-93.9 36.1s-34.4 58-36.2 93.9c-2.1 37-2.1 147.9 0 184.9 1.7 35.9 9.9 67.7 36.2 93.9s58 34.4 93.9 36.2c37 2.1 147.9 2.1 184.9 0 35.9-1.7 67.7-9.9 93.9-36.2 26.2-26.2 34.4-58 36.2-93.9 2.1-37 2.1-147.8 0-184.8zM398.8 388c-7.8 19.6-22.9 34.7-42.6 42.6-29.5 11.7-99.5 9-132.1 9s-102.7 2.6-132.1-9c-19.6-7.8-34.7-22.9-42.6-42.6-11.7-29.5-9-99.5-9-132.1s-2.6-102.7 9-132.1c7.8-19.6 22.9-34.7 42.6-42.6 29.5-11.7 99.5-9 132.1-9s102.7-2.6 132.1 9c19.6 7.8 34.7 22.9 42.6 42.6 11.7 29.5 9 99.5 9 132.1s2.7 102.7-9 132.1z"/></symbol><symbol viewBox="0 0 448 448" id="minus-square" xmlns="http://www.w3.org/2000/svg"><path d="M108 252c-6.6 0-12-5.4-12-12v-32c0-6.6 5.4-12 12-12h232c6.6 0 12 5.4 12 12v32c0 6.6-5.4 12-12 12H108zM448 48v352c0 26.5-21.5 48-48 48H48c-26.5 0-48-21.5-48-48V48C0 21.5 21.5 0 48 0h352c26.5 0 48 21.5 48 48zm-48 346V54c0-3.3-2.7-6-6-6H54c-3.3 0-6 2.7-6 6v340c0 3.3 2.7 6 6 6h340c3.3 0 6-2.7 6-6z" fill="#FFF" fill-rule="nonzero"/></symbol><symbol viewBox="0 0 448 448" id="minus-square-blue" xmlns="http://www.w3.org/2000/svg"><path d="M400 0H48C21.5 0 0 21.5 0 48v352c0 26.5 21.5 48 48 48h352c26.5 0 48-21.5 48-48V48c0-26.5-21.5-48-48-48zM92 264c-6.6 0-12-5.4-12-12v-56c0-6.6 5.4-12 12-12h264c6.6 0 12 5.4 12 12v56c0 6.6-5.4 12-12 12H92z" fill="#124EC2" fill-rule="nonzero"/></symbol><symbol viewBox="0 0 448 448" id="plus-square" xmlns="http://www.w3.org/2000/svg"><path d="M352 208v32c0 6.6-5.4 12-12 12h-88v88c0 6.6-5.4 12-12 12h-32c-6.6 0-12-5.4-12-12v-88h-88c-6.6 0-12-5.4-12-12v-32c0-6.6 5.4-12 12-12h88v-88c0-6.6 5.4-12 12-12h32c6.6 0 12 5.4 12 12v88h88c6.6 0 12 5.4 12 12zm96-160v352c0 26.5-21.5 48-48 48H48c-26.5 0-48-21.5-48-48V48C0 21.5 21.5 0 48 0h352c26.5 0 48 21.5 48 48zm-48 346V54c0-3.3-2.7-6-6-6H54c-3.3 0-6 2.7-6 6v340c0 3.3 2.7 6 6 6h340c3.3 0 6-2.7 6-6z" fill="#FFF" fill-rule="nonzero"/></symbol><symbol viewBox="0 0 448 448" id="plus-square-blue" xmlns="http://www.w3.org/2000/svg"><path d="M400 0H48C21.5 0 0 21.5 0 48v352c0 26.5 21.5 48 48 48h352c26.5 0 48-21.5 48-48V48c0-26.5-21.5-48-48-48zm-32 252c0 6.6-5.4 12-12 12h-92v92c0 6.6-5.4 12-12 12h-56c-6.6 0-12-5.4-12-12v-92H92c-6.6 0-12-5.4-12-12v-56c0-6.6 5.4-12 12-12h92V92c0-6.6 5.4-12 12-12h56c6.6 0 12 5.4 12 12v92h92c6.6 0 12 5.4 12 12v56z" fill="#124EC2" fill-rule="nonzero"/></symbol><symbol viewBox="0 0 14 15" id="print" xmlns="http://www.w3.org/2000/svg"><path d="M11.375 6c.73 0 1.349.255 1.86.766.51.51.765 1.13.765 1.859v3.719c0 .182-.064.337-.191.465s-.283.191-.465.191h-1.969v1.094c0 .182-.064.337-.191.465s-.283.191-.465.191H3.28c-.182 0-.337-.064-.465-.191s-.191-.283-.191-.465V13H.656a.633.633 0 0 1-.465-.191.633.633 0 0 1-.191-.465V8.625c0-.73.255-1.349.766-1.86.51-.51 1.13-.765 1.859-.765V1.406c0-.182.064-.337.191-.465S3.1.75 3.281.75h5.852c.182 0 .337.064.465.191l1.586 1.586a.633.633 0 0 1 .191.465zM3.937 2.063v5.25h6.125V3.266L8.86 2.063zm6.125 11.374V11.25H3.937v2.187zm2.625-1.75V8.626c0-.365-.127-.674-.382-.93a1.266 1.266 0 0 0-.93-.382v.656c0 .182-.064.337-.191.465s-.283.191-.465.191H3.28c-.182 0-.337-.064-.465-.191s-.191-.283-.191-.465v-.656c-.365 0-.674.127-.93.382a1.266 1.266 0 0 0-.383.93v3.063h1.313v-1.094c0-.183.064-.337.191-.465s.283-.191.465-.191h7.438c.182 0 .337.063.465.19s.191.283.191.466v1.094zm-.218-2.624c0 .182-.064.337-.192.464s-.282.192-.465.192c-.182 0-.337-.064-.464-.192s-.192-.282-.192-.464.064-.338.192-.465.282-.192.464-.192c.183 0 .338.064.465.192s.192.282.192.465z" fill="#fff" fill-rule="evenodd"/></symbol><symbol viewBox="0 0 512 512" fill="#FFF" fill-opacity=".7" id="search" xmlns="http://www.w3.org/2000/svg"><path d="M505 442.7L405.3 343c-4.5-4.5-10.6-7-17-7H372c27.6-35.3 44-79.7 44-128C416 93.1 322.9 0 208 0S0 93.1 0 208s93.1 208 208 208c48.3 0 92.7-16.4 128-44v16.3c0 6.4 2.5 12.5 7 17l99.7 99.7c9.4 9.4 24.6 9.4 33.9 0l28.3-28.3c9.4-9.4 9.4-24.6.1-34zM208 336c-70.7 0-128-57.2-128-128 0-70.7 57.2-128 128-128 70.7 0 128 57.2 128 128 0 70.7-57.2 128-128 128z"/></symbol><symbol viewBox="0 0 48 46" id="star" xmlns="http://www.w3.org/2000/svg"><path d="M21.425 1.6l-5.859 11.894-13.108 1.913C.108 15.75-.834 18.65.87 20.312l9.484 9.253-2.243 13.07c-.404 2.363 2.081 4.133 4.163 3.028L24 39.492l11.726 6.171c2.082 1.096 4.567-.665 4.163-3.027l-2.243-13.07 9.484-9.254c1.704-1.662.762-4.563-1.588-4.905l-13.108-1.913L26.574 1.6c-1.049-2.12-4.09-2.147-5.149 0z" fill="#D35400" fill-rule="evenodd"/></symbol><symbol viewBox="0 0 512 512" id="times-circle" xmlns="http://www.w3.org/2000/svg"><path d="M256 8C119 8 8 119 8 256s111 248 248 248 248-111 248-248S393 8 256 8zm0 464c-118.7 0-216-96.1-216-216 0-118.7 96.1-216 216-216 118.7 0 216 96.1 216 216 0 118.7-96.1 216-216 216zm94.8-285.3L281.5 256l69.3 69.3c4.7 4.7 4.7 12.3 0 17l-8.5 8.5c-4.7 4.7-12.3 4.7-17 0L256 281.5l-69.3 69.3c-4.7 4.7-12.3 4.7-17 0l-8.5-8.5c-4.7-4.7-4.7-12.3 0-17l69.3-69.3-69.3-69.3c-4.7-4.7-4.7-12.3 0-17l8.5-8.5c4.7-4.7 12.3-4.7 17 0l69.3 69.3 69.3-69.3c4.7-4.7 12.3-4.7 17 0l8.5 8.5c4.6 4.7 4.6 12.3 0 17z"/></symbol><symbol viewBox="0 0 512 512" id="twitter" xmlns="http://www.w3.org/2000/svg"><path d="M459.37 151.716c.325 4.548.325 9.097.325 13.645 0 138.72-105.583 298.558-298.558 298.558-59.452 0-114.68-17.219-161.137-47.106 8.447.974 16.568 1.299 25.34 1.299 49.055 0 94.213-16.568 130.274-44.832-46.132-.975-84.792-31.188-98.112-72.772 6.498.974 12.995 1.624 19.818 1.624 9.421 0 18.843-1.3 27.614-3.573-48.081-9.747-84.143-51.98-84.143-102.985v-1.299c13.969 7.797 30.214 12.67 47.431 13.319-28.264-18.843-46.781-51.005-46.781-87.391 0-19.492 5.197-37.36 14.294-52.954 51.655 63.675 129.3 105.258 216.365 109.807-1.624-7.797-2.599-15.918-2.599-24.04 0-57.828 46.782-104.934 104.934-104.934 30.213 0 57.502 12.67 76.67 33.137 23.715-4.548 46.456-13.32 66.599-25.34-7.798 24.366-24.366 44.833-46.132 57.827 21.117-2.273 41.584-8.122 60.426-16.243-14.292 20.791-32.161 39.308-52.628 54.253z"/></symbol><symbol viewBox="0 0 1058 248" id="uft-logo-large" xmlns="http://www.w3.org/2000/svg"><g fill="#FFF" fill-rule="evenodd"><path d="M191.47 84.73A90.46 90.46 0 0 0 175.12 105a140 140 0 0 1 24.12-14.59l.14-.06c18-8.64 37.89-14 57.1-16.74a222.89 222.89 0 0 1 54.61-1.29s-3.94-2.76-9.36-6.43c-10.82-7.33-27.64-18.25-31.32-18-20 1.53-55 14.21-78.94 36.8v.04z"/><path d="M184.34 78.9c-2.57 5.27-5.06 11-7.43 17.19 3.92-5 7.71-9.43 11.44-13.41 24.7-26.35 46.91-32.69 90.62-48 0 0-33.38-17.8-38.28-15.27-19.56 10.14-39.82 25.6-56.35 59.51v-.02z"/><path d="M159.14 65.42c-18-42.09-73.07-58.67-73.07-58.67 22.63 16.36 46.59 48.67 56.16 79.52a191.48 191.48 0 0 1 6.77 21.08h20.41a189.36 189.36 0 0 1 6.72-21.08c9.57-30.85 33.53-63.16 56.16-79.52 0 0-55.09 16.58-73.07 58.67h-.08zm-32.31 19.31A90.46 90.46 0 0 1 143.18 105a139.89 139.89 0 0 0-24.11-14.59l-.14-.06c-18-8.64-37.89-14-57.11-16.74a222.81 222.81 0 0 0-54.6-1.29s3.94-2.76 9.35-6.43c10.83-7.33 27.64-18.25 31.33-18 20 1.53 55 14.21 78.93 36.8v.04z"/><path d="M134 78.9c2.57 5.27 5.05 11 7.43 17.19-3.93-5-7.71-9.43-11.45-13.41-24.7-26.35-46.91-32.69-90.62-48 0 0 33.39-17.8 38.28-15.27C97.17 29.53 117.43 45 134 78.9z"/><path d="M159.17 112.7H146c-19.52-17-95.93-36.78-121-35.29a5.05 5.05 0 0 0-2.56 1.24C15.52 84.04 2.61 103.14.22 104.8c67.53-5.23 112.6 2.85 133.93 8.31 2.773.72 5.143 1.387 7.11 2 2 .6 3.61 1.12 4.79 1.52v3.78h26.24v-3.81c1.19-.4 2.78-.92 4.8-1.52s4.34-1.25 7.1-2c21.34-5.46 66.41-13.54 133.93-8.31-2.38-1.66-15.29-20.76-22.22-26.15a5 5 0 0 0-2.56-1.24c-25.11-1.49-101.52 18.33-121 35.29h-13.1l-.07.03zM130 136.32v60.8c0 13.9-.57 27.67-11.32 38.14-9 8.89-23.24 12.05-35.85 12.05-12.61 0-26.82-3.16-35.85-12.05-10.75-10.47-11.33-24.24-11.33-38.14v-60.8H63.8v56.93c0 14.05 1 29.39 19.07 29.39s19.07-15.34 19.07-29.39v-56.93H130zm36.14 23.81v18.07H197V202h-30.86v42.44H138V136.32h62.09v23.81zm93.21 84.31h-28.11v-84.31H208v-23.81h74.57v23.81h-23.22z"/><ellipse cx="159.14" cy="18.83" rx="16.47" ry="18.46"/><path d="M330.54 136v30.06a23.41 23.41 0 0 0 .95 7.17 11.8 11.8 0 0 0 2.79 4.83 10.68 10.68 0 0 0 4.48 2.72 19.52 19.52 0 0 0 6 .85 19.74 19.74 0 0 0 6.05-.85 10.72 10.72 0 0 0 4.49-2.72 12 12 0 0 0 2.79-4.83 23.72 23.72 0 0 0 .95-7.17V136h4.65v31.08a23.8 23.8 0 0 1-1 7.11 15.23 15.23 0 0 1-9.18 9.86 23 23 0 0 1-8.67 1.46 22.74 22.74 0 0 1-8.6-1.46 15.89 15.89 0 0 1-5.85-4 15.57 15.57 0 0 1-3.33-5.88 23.49 23.49 0 0 1-1.06-7.11V136h4.54zm45.75 13.023v6.05h.13a10.27 10.27 0 0 1 4.36-5.13 12.69 12.69 0 0 1 6.86-1.94c2.097-.04 4.183.3 6.16 1a9.81 9.81 0 0 1 4 2.69 9.94 9.94 0 0 1 2.1 4.25 23.75 23.75 0 0 1 .62 5.64v22.58h-4.31v-21.9a19.76 19.76 0 0 0-.41-4.18 8.83 8.83 0 0 0-1.42-3.37 6.9 6.9 0 0 0-2.76-2.24 10 10 0 0 0-4.32-.82 11 11 0 0 0-4.59.92 9.94 9.94 0 0 0-3.4 2.52 11.51 11.51 0 0 0-2.17 3.8 15.48 15.48 0 0 0-.85 4.8v20.47H372v-35.14h4.29z"/><path d="M412.28 136v6.87H408V136h4.28zm0 13.47v35.09H408v-35.09h4.28z" fill-rule="nonzero"/><path d="M434.5 149.54v3.6h-7.14v23.67a7.58 7.58 0 0 0 .58 3.29c.38.8 1.34 1.24 2.88 1.33a34.9 34.9 0 0 0 3.68-.2v3.6c-.64 0-1.27 0-1.91.07-.64.07-1.27.07-1.9.07-2.86 0-4.85-.56-6-1.67-1.15-1.11-1.67-3.16-1.63-6.15v-24H417v-3.6h6.12V139h4.29v10.54h7.09z"/><path d="M442.93 172.55a13.22 13.22 0 0 0 2.07 4.46 11.87 11.87 0 0 0 3.6 3.26 10.1 10.1 0 0 0 5.24 1.29c3.13 0 5.58-.81 7.34-2.45a12.84 12.84 0 0 0 3.68-6.52h4.28a17.12 17.12 0 0 1-5 9.25c-2.42 2.174-5.853 3.26-10.3 3.26a16.38 16.38 0 0 1-7.17-1.46 13.18 13.18 0 0 1-4.93-4 17.32 17.32 0 0 1-2.82-5.91 26.54 26.54 0 0 1-.92-7.11 25.17 25.17 0 0 1 .92-6.8 18.26 18.26 0 0 1 2.82-6 14 14 0 0 1 4.93-4.21 15.09 15.09 0 0 1 7.17-1.6 13.88 13.88 0 0 1 12.07 6.15 18.58 18.58 0 0 1 2.69 6.33 27.93 27.93 0 0 1 .68 7.24h-27a19 19 0 0 0 .65 4.82zm21.21-13.09a13 13 0 0 0-2.21-4 11 11 0 0 0-3.47-2.78 9.83 9.83 0 0 0-4.62-1.06 10 10 0 0 0-4.69 1.06 11 11 0 0 0-3.47 2.78 14.1 14.1 0 0 0-2.28 4 19.47 19.47 0 0 0-1.12 4.65h22.71a15.38 15.38 0 0 0-.85-4.65zm37.282 25.1v-6.67h-.13a10 10 0 0 1-2 3.13 12.82 12.82 0 0 1-3 2.41 15.59 15.59 0 0 1-3.64 1.53 13.87 13.87 0 0 1-3.84.55 15.6 15.6 0 0 1-7-1.46 13.93 13.93 0 0 1-4.93-4 17.15 17.15 0 0 1-2.93-5.91 27 27 0 0 1 0-14.21 17.19 17.19 0 0 1 2.93-5.94 14.22 14.22 0 0 1 4.93-4.05 15.34 15.34 0 0 1 7-1.49 15.9 15.9 0 0 1 3.84.47 13 13 0 0 1 3.5 1.47 12.16 12.16 0 0 1 2.89 2.41 10.2 10.2 0 0 1 1.94 3.33h.13V136h4.29v48.56h-3.98zm-23.49-12.14a14.85 14.85 0 0 0 2 4.79 11.28 11.28 0 0 0 3.57 3.44 9.92 9.92 0 0 0 5.24 1.32 11.55 11.55 0 0 0 5.74-1.32 11.29 11.29 0 0 0 3.81-3.44 13.94 13.94 0 0 0 2.11-4.79 23.14 23.14 0 0 0 0-10.81 14.08 14.08 0 0 0-2.11-4.8 11.26 11.26 0 0 0-3.81-3.43 11.55 11.55 0 0 0-5.74-1.33 9.92 9.92 0 0 0-5.24 1.33 11.25 11.25 0 0 0-3.57 3.43 15 15 0 0 0-2 4.8 22.8 22.8 0 0 0 0 10.81z" fill-rule="nonzero"/><path d="M562.81 136v3.95h-26.18v17.54h23.26v3.95h-23.26v23.12H532V136z"/><path d="M570.93 172.55a13.22 13.22 0 0 0 2.07 4.46 11.91 11.91 0 0 0 3.61 3.26 10.07 10.07 0 0 0 5.23 1.29 10.4 10.4 0 0 0 7.35-2.45 12.9 12.9 0 0 0 3.67-6.52h4.28a17.05 17.05 0 0 1-5 9.25c-2.42 2.174-5.853 3.26-10.3 3.26-2.469.06-4.92-.44-7.17-1.46a13.26 13.26 0 0 1-4.93-4 17.32 17.32 0 0 1-2.82-5.91 26.54 26.54 0 0 1-.92-7.11 25.17 25.17 0 0 1 .92-6.8 18.26 18.26 0 0 1 2.82-6 14.14 14.14 0 0 1 4.93-4.21 15.11 15.11 0 0 1 7.17-1.6 13.88 13.88 0 0 1 12.07 6.15 18.58 18.58 0 0 1 2.69 6.33 27.93 27.93 0 0 1 .68 7.24h-27a19 19 0 0 0 .65 4.82zm21.21-13.09a12.78 12.78 0 0 0-2.21-4 10.92 10.92 0 0 0-3.46-2.78 9.87 9.87 0 0 0-4.63-1.06 10 10 0 0 0-4.69 1.06 11 11 0 0 0-3.47 2.78 14.1 14.1 0 0 0-2.28 4 20 20 0 0 0-1.12 4.65h22.71a15.38 15.38 0 0 0-.85-4.65zm38.292 25.1v-6.67h-.14a9.84 9.84 0 0 1-2 3.13 12.82 12.82 0 0 1-3 2.41 15.59 15.59 0 0 1-3.64 1.53 13.87 13.87 0 0 1-3.84.55 15.6 15.6 0 0 1-7-1.46 14 14 0 0 1-4.93-4 17.15 17.15 0 0 1-2.93-5.91 27 27 0 0 1 0-14.21 17.19 17.19 0 0 1 2.93-5.92 14.32 14.32 0 0 1 4.93-4.05 15.34 15.34 0 0 1 7-1.49 15.9 15.9 0 0 1 3.84.47 12.87 12.87 0 0 1 3.5 1.47 12.16 12.16 0 0 1 2.89 2.41 10 10 0 0 1 1.94 3.33h.14V136h4.28v48.56h-3.97zm-23.5-12.14a14.85 14.85 0 0 0 2 4.79 11.28 11.28 0 0 0 3.57 3.44 9.92 9.92 0 0 0 5.24 1.32 11.55 11.55 0 0 0 5.74-1.32 11.29 11.29 0 0 0 3.81-3.44 13.94 13.94 0 0 0 2.11-4.79 22.8 22.8 0 0 0 0-10.81 14.08 14.08 0 0 0-2.11-4.8 11.26 11.26 0 0 0-3.81-3.43 11.55 11.55 0 0 0-5.74-1.33 9.92 9.92 0 0 0-5.24 1.33 11.25 11.25 0 0 0-3.57 3.43 15 15 0 0 0-2 4.8 23.14 23.14 0 0 0 0 10.81zm38.998.13a13.05 13.05 0 0 0 2.08 4.46 11.87 11.87 0 0 0 3.6 3.26 10.1 10.1 0 0 0 5.24 1.29 10.39 10.39 0 0 0 7.34-2.45 12.83 12.83 0 0 0 3.67-6.52h4.29a17.18 17.18 0 0 1-5 9.25c-2.426 2.173-5.86 3.26-10.3 3.26a16.43 16.43 0 0 1-7.18-1.46 13.26 13.26 0 0 1-4.93-4 17.32 17.32 0 0 1-2.82-5.91 27 27 0 0 1-.92-7.11c0-2.298.31-4.585.92-6.8a18.26 18.26 0 0 1 2.82-6 14.14 14.14 0 0 1 4.93-4.21 15.13 15.13 0 0 1 7.18-1.6 13.91 13.91 0 0 1 12.07 6.15 18.57 18.57 0 0 1 2.68 6.33 27.5 27.5 0 0 1 .68 7.24h-27a19 19 0 0 0 .65 4.82zm21.22-13.09a13 13 0 0 0-2.21-4 11 11 0 0 0-3.47-2.78 9.83 9.83 0 0 0-4.62-1.06 10 10 0 0 0-4.7 1.06 10.92 10.92 0 0 0-3.41 2.8 13.64 13.64 0 0 0-2.28 4 19.47 19.47 0 0 0-1.12 4.65h22.71a15.68 15.68 0 0 0-.9-4.67z" fill-rule="nonzero"/><path d="M681.95 149.514v8.23h.13a13.47 13.47 0 0 1 5.07-6.6 13.31 13.31 0 0 1 8.19-2.11v4.29a12.94 12.94 0 0 0-5.3.78 11.71 11.71 0 0 0-6.8 6.66 13.47 13.47 0 0 0-.95 5.14v18.7H678v-35.09h3.95z"/><path d="M698.816 154.461a10.12 10.12 0 0 1 3-3.67 12.36 12.36 0 0 1 4.39-2.11 21.41 21.41 0 0 1 5.57-.68 25 25 0 0 1 4.63.44 11.26 11.26 0 0 1 4.15 1.67 9.06 9.06 0 0 1 3 3.43 12.4 12.4 0 0 1 1.15 5.75v18.63a2.25 2.25 0 0 0 2.52 2.58 3.34 3.34 0 0 0 1.36-.27v3.6c-.5.1-.94.16-1.33.21a14.09 14.09 0 0 1-1.46.07 6.39 6.39 0 0 1-2.62-.45 3.58 3.58 0 0 1-1.53-1.25 4.74 4.74 0 0 1-.71-1.94 17.16 17.16 0 0 1-.17-2.48h-.21a28.79 28.79 0 0 1-2.34 3 11.76 11.76 0 0 1-2.65 2.21 12.37 12.37 0 0 1-3.34 1.36 18 18 0 0 1-4.45.48 17.38 17.38 0 0 1-4.59-.58 10.23 10.23 0 0 1-3.74-1.84 8.75 8.75 0 0 1-2.52-3.19 10.65 10.65 0 0 1-.91-4.59 9.08 9.08 0 0 1 1.63-5.75 10.35 10.35 0 0 1 4.32-3.16 25 25 0 0 1 6.05-1.53c2.24-.29 4.52-.58 6.83-.85a23.39 23.39 0 0 0 2.38-.34 4.18 4.18 0 0 0 1.7-.71 3.29 3.29 0 0 0 1.06-1.4 6.2 6.2 0 0 0 .37-2.31 7.9 7.9 0 0 0-.71-3.57 5.65 5.65 0 0 0-2-2.21 7.94 7.94 0 0 0-2.92-1.12 19.21 19.21 0 0 0-3.57-.31 10.81 10.81 0 0 0-6.6 1.96c-1.73 1.29-2.63 3.37-2.72 6.22h-4.28a14.39 14.39 0 0 1 1.26-5.3zm21.42 10.47a2.45 2.45 0 0 1-1.56 1.09 15.15 15.15 0 0 1-2 .47c-1.81.32-3.68.61-5.61.85-1.787.221-3.55.6-5.27 1.13a10.27 10.27 0 0 0-3.91 2.14 5.1 5.1 0 0 0-1.53 4 6.25 6.25 0 0 0 .65 2.89 6.86 6.86 0 0 0 1.73 2.17 7.55 7.55 0 0 0 2.52 1.4 9.34 9.34 0 0 0 2.92.47 14.67 14.67 0 0 0 4.69-.75 11.38 11.38 0 0 0 3.91-2.17 10.39 10.39 0 0 0 3.64-8.09v-5.58l-.18-.02z" fill-rule="nonzero"/><path d="M746.56 149.54v3.6h-7.14v23.67a7.58 7.58 0 0 0 .58 3.29c.39.8 1.35 1.24 2.89 1.33a34.71 34.71 0 0 0 3.67-.2v3.6c-.63 0-1.27 0-1.9.07-.63.07-1.27.07-1.91.07-2.85 0-4.85-.56-6-1.67-1.15-1.11-1.68-3.16-1.63-6.15v-24H729v-3.6h6.12V139h4.28v10.54h7.16z"/><path d="M757.28 136v6.87H753V136h4.28zm0 13.47v35.09H753v-35.09h4.28zm30.42 0c2 .947 3.773 2.31 5.2 4a17.24 17.24 0 0 1 3.2 5.88 24.16 24.16 0 0 1 0 14.35 17.43 17.43 0 0 1-3.2 5.88 15.11 15.11 0 0 1-5.2 4 18 18 0 0 1-14.21 0 15.15 15.15 0 0 1-5.21-4 17.41 17.41 0 0 1-3.19-5.86 24.16 24.16 0 0 1 0-14.35 17.22 17.22 0 0 1 3.19-5.88 15.51 15.51 0 0 1 5.21-4 17.68 17.68 0 0 1 14.21 0v-.02zm-12.48 3.4a11.88 11.88 0 0 0-3.84 3.41 15.32 15.32 0 0 0-2.31 4.79 19.37 19.37 0 0 0 0 11 15.32 15.32 0 0 0 2.31 4.79 11.73 11.73 0 0 0 3.84 3.4 11.84 11.84 0 0 0 10.75 0 11.73 11.73 0 0 0 3.84-3.4 15.32 15.32 0 0 0 2.31-4.79 19.61 19.61 0 0 0 0-11 15.32 15.32 0 0 0-2.31-4.79 11.88 11.88 0 0 0-3.84-3.41 11.84 11.84 0 0 0-10.75 0z" fill-rule="nonzero"/><path d="M807.26 149.023v6.05h.14a10.3 10.3 0 0 1 4.35-5.13 12.75 12.75 0 0 1 6.87-1.94 17.35 17.35 0 0 1 6.15 1 9.75 9.75 0 0 1 4 2.69 10 10 0 0 1 2.11 4.25 23.78 23.78 0 0 1 .61 5.64v22.58h-4.28v-21.9a20.44 20.44 0 0 0-.41-4.18 8.84 8.84 0 0 0-1.43-3.37 6.93 6.93 0 0 0-2.75-2.24 10.06 10.06 0 0 0-4.32-.82 11 11 0 0 0-4.59.92 9.84 9.84 0 0 0-3.4 2.52 11.53 11.53 0 0 0-2.18 3.8 15.78 15.78 0 0 0-.85 4.8v20.47H803v-35.14h4.26z"/><path d="M346.7 209.49c2 .947 3.773 2.31 5.2 4a17.24 17.24 0 0 1 3.2 5.88 24.16 24.16 0 0 1 0 14.35 17.43 17.43 0 0 1-3.2 5.88 15.11 15.11 0 0 1-5.2 4 18 18 0 0 1-14.21 0 15.11 15.11 0 0 1-5.2-4 17.43 17.43 0 0 1-3.2-5.88 24.16 24.16 0 0 1 0-14.35 17.24 17.24 0 0 1 3.2-5.88 15.47 15.47 0 0 1 5.2-4 17.68 17.68 0 0 1 14.21 0zm-12.48 3.4a12 12 0 0 0-3.84 3.4 15.48 15.48 0 0 0-2.31 4.8 19.61 19.61 0 0 0 0 10.95 15.32 15.32 0 0 0 2.31 4.79 11.73 11.73 0 0 0 3.84 3.4 11.84 11.84 0 0 0 10.75 0 11.73 11.73 0 0 0 3.84-3.4 15.32 15.32 0 0 0 2.31-4.79 19.61 19.61 0 0 0 0-10.95 15.48 15.48 0 0 0-2.31-4.8 12 12 0 0 0-3.84-3.4 11.84 11.84 0 0 0-10.75 0z" fill-rule="nonzero"/><path d="M369.29 212.076v31.52H365v-31.52h-6v-3.6h6v-3.2a23.4 23.4 0 0 1 .34-4.15 8.26 8.26 0 0 1 1.29-3.26 6.25 6.25 0 0 1 2.62-2.11 10.41 10.41 0 0 1 4.25-.75c.64 0 1.23 0 1.77.07s1.16.12 1.84.21v3.67l-1.64-.24a10.66 10.66 0 0 0-1.47-.12 5.57 5.57 0 0 0-2.72.54 3.39 3.39 0 0 0-1.4 1.46 5.86 5.86 0 0 0-.51 2.15c0 .81-.06 1.7-.06 2.65v3.06h6.93v3.6l-6.95.02zM433.42 195v3.95h-16.93v44.64h-4.62v-44.64H395V195z"/><path d="M433.93 232.502a13.22 13.22 0 0 0 2.07 4.46 11.8 11.8 0 0 0 3.61 3.26 10.07 10.07 0 0 0 5.23 1.29 10.4 10.4 0 0 0 7.35-2.45 12.9 12.9 0 0 0 3.67-6.52h4.28a17.05 17.05 0 0 1-5 9.24c-2.42 2.18-5.853 3.27-10.3 3.27a16.38 16.38 0 0 1-7.17-1.46 13.26 13.26 0 0 1-4.93-4 17.4 17.4 0 0 1-2.82-5.91 26.6 26.6 0 0 1-.92-7.11 25.17 25.17 0 0 1 .92-6.8 18.26 18.26 0 0 1 2.82-5.95 14.14 14.14 0 0 1 4.93-4.21 15.09 15.09 0 0 1 7.17-1.6 13.88 13.88 0 0 1 12.09 6.12 18.58 18.58 0 0 1 2.69 6.33 27.93 27.93 0 0 1 .68 7.24h-27a19 19 0 0 0 .63 4.8zm21.21-13.09a12.78 12.78 0 0 0-2.21-4 10.92 10.92 0 0 0-3.46-2.78 9.87 9.87 0 0 0-4.63-1.06 10 10 0 0 0-4.69 1.06 11 11 0 0 0-3.47 2.78 14.1 14.1 0 0 0-2.28 4 20 20 0 0 0-1.12 4.65h22.71a15.38 15.38 0 0 0-.86-4.65h.01zm11.625-4.951a10 10 0 0 1 3-3.67 12.36 12.36 0 0 1 4.39-2.11 21.41 21.41 0 0 1 5.57-.68 25.11 25.11 0 0 1 4.63.44 11.15 11.15 0 0 1 4.14 1.67 9.09 9.09 0 0 1 3 3.43 12.4 12.4 0 0 1 1.15 5.75v18.63a2.25 2.25 0 0 0 2.52 2.58 3.34 3.34 0 0 0 1.36-.27v3.6c-.5.1-.94.16-1.33.21a14.09 14.09 0 0 1-1.46.07 6.39 6.39 0 0 1-2.62-.45 3.46 3.46 0 0 1-1.53-1.25 4.74 4.74 0 0 1-.71-1.94 15.84 15.84 0 0 1-.17-2.48h-.14a28.79 28.79 0 0 1-2.34 3 11.59 11.59 0 0 1-2.66 2.21 12.17 12.17 0 0 1-3.33 1.36 18.09 18.09 0 0 1-4.45.48 17.38 17.38 0 0 1-4.59-.58 10.16 10.16 0 0 1-3.74-1.84 8.65 8.65 0 0 1-2.52-3.19 10.65 10.65 0 0 1-.92-4.59 9.08 9.08 0 0 1 1.64-5.75 10.26 10.26 0 0 1 4.31-3.16 25.11 25.11 0 0 1 6.06-1.53c2.24-.29 4.52-.58 6.83-.85a23.39 23.39 0 0 0 2.38-.34 4.18 4.18 0 0 0 1.7-.71 3.35 3.35 0 0 0 1-1.4 6 6 0 0 0 .38-2.31 7.76 7.76 0 0 0-.72-3.57 5.55 5.55 0 0 0-2-2.21 7.94 7.94 0 0 0-2.92-1.12 19.21 19.21 0 0 0-3.57-.31 10.86 10.86 0 0 0-6.67 1.94c-1.72 1.29-2.63 3.37-2.72 6.22h-4.28a14.39 14.39 0 0 1 1.33-5.28zm21.42 10.47a2.45 2.45 0 0 1-1.56 1.09 15.15 15.15 0 0 1-2 .47c-1.82.32-3.69.61-5.61.85a30.48 30.48 0 0 0-5.27 1.13 10.27 10.27 0 0 0-3.91 2.14 5.1 5.1 0 0 0-1.53 4c-.02 1 .2 1.992.64 2.89a6.89 6.89 0 0 0 1.74 2.17 7.6 7.6 0 0 0 2.51 1.4 9.45 9.45 0 0 0 2.93.47 14.72 14.72 0 0 0 4.69-.75 11.38 11.38 0 0 0 3.91-2.17 10.59 10.59 0 0 0 2.65-3.47 10.45 10.45 0 0 0 1-4.62v-5.58l-.19-.02z" fill-rule="nonzero"/><path d="M523.26 213.807a9.33 9.33 0 0 0-6.67-2.25 10.83 10.83 0 0 0-5.37 1.29 12 12 0 0 0-3.84 3.4 15.48 15.48 0 0 0-2.31 4.8 19.37 19.37 0 0 0 0 10.95 15.32 15.32 0 0 0 2.31 4.79 11.73 11.73 0 0 0 3.84 3.4 10.83 10.83 0 0 0 5.37 1.29 9.46 9.46 0 0 0 3.74-.75 10 10 0 0 0 3.13-2.07c.93-.91 1.69-1.98 2.24-3.16a11.57 11.57 0 0 0 1.09-4h4.29a16.19 16.19 0 0 1-4.7 10 13.74 13.74 0 0 1-9.79 3.57 16.5 16.5 0 0 1-7.1-1.46 15.15 15.15 0 0 1-5.21-4 17.41 17.41 0 0 1-3.19-5.88 24.16 24.16 0 0 1 0-14.35 17.22 17.22 0 0 1 3.19-5.88 15.51 15.51 0 0 1 5.21-4 16.21 16.21 0 0 1 7.1-1.49c3.433-.101 6.8.956 9.56 3 2.6 2 4.15 5 4.65 9h-4.28a11.83 11.83 0 0 0-3.26-6.2zm18-18.807v19.52h.13a10.3 10.3 0 0 1 4.35-5.13 12.75 12.75 0 0 1 6.87-1.94 17.45 17.45 0 0 1 6.16.95 9.71 9.71 0 0 1 4 2.69 10 10 0 0 1 2.11 4.25 23.78 23.78 0 0 1 .61 5.64v22.61h-4.28v-21.9a20.36 20.36 0 0 0-.41-4.18 8.69 8.69 0 0 0-1.43-3.37 6.86 6.86 0 0 0-2.75-2.24 10.06 10.06 0 0 0-4.32-.82 11 11 0 0 0-4.59.92 9.94 9.94 0 0 0-3.4 2.52 11.51 11.51 0 0 0-2.17 3.8 15.2 15.2 0 0 0-.85 4.8v20.47H537V195h4.26z"/><path d="M576.93 232.501a13.22 13.22 0 0 0 2.07 4.46 11.8 11.8 0 0 0 3.61 3.26 10.07 10.07 0 0 0 5.23 1.29 10.4 10.4 0 0 0 7.35-2.45 12.9 12.9 0 0 0 3.67-6.52h4.28a17 17 0 0 1-5 9.24c-2.42 2.18-5.853 3.27-10.3 3.27-2.469.06-4.92-.44-7.17-1.46a13.26 13.26 0 0 1-4.93-4 17.4 17.4 0 0 1-2.82-5.91 26.6 26.6 0 0 1-.92-7.11 25.17 25.17 0 0 1 .92-6.8 18.26 18.26 0 0 1 2.82-5.95 14.14 14.14 0 0 1 4.93-4.21 15.11 15.11 0 0 1 7.17-1.6 13.88 13.88 0 0 1 12.07 6.12 18.58 18.58 0 0 1 2.69 6.33 27.93 27.93 0 0 1 .68 7.24h-27a19 19 0 0 0 .65 4.8zm21.21-13.09a12.78 12.78 0 0 0-2.21-4 10.92 10.92 0 0 0-3.46-2.78 9.87 9.87 0 0 0-4.63-1.06 10 10 0 0 0-4.69 1.06 11 11 0 0 0-3.47 2.78 14.1 14.1 0 0 0-2.28 4 20 20 0 0 0-1.12 4.65h22.71a15.38 15.38 0 0 0-.85-4.65z" fill-rule="nonzero"/><path d="M612.99 208.525v8.23h.14a12.86 12.86 0 0 1 13.26-8.71v4.29a13 13 0 0 0-5.31.78 11.78 11.78 0 0 0-6.8 6.66 13.67 13.67 0 0 0-1 5.14v18.73H609v-35.12h3.99zm37.13 7.325a6.92 6.92 0 0 0-2-2.41 8.45 8.45 0 0 0-2.89-1.4 13.46 13.46 0 0 0-3.47-.44c-.972 0-1.94.105-2.89.31a8.72 8.72 0 0 0-2.69 1 5.79 5.79 0 0 0-2 1.87 5.13 5.13 0 0 0-.75 2.85 4 4 0 0 0 .72 2.42 6.11 6.11 0 0 0 1.8 1.66 11.35 11.35 0 0 0 2.38 1.13c.86.29 1.65.53 2.38.71l5.71 1.29a16 16 0 0 1 3.64 1 11.66 11.66 0 0 1 3.2 1.87 9.26 9.26 0 0 1 2.27 2.85 8.63 8.63 0 0 1 .89 4 8.73 8.73 0 0 1-1.3 4.86 10.55 10.55 0 0 1-3.29 3.26 14 14 0 0 1-4.52 1.8 23.07 23.07 0 0 1-5 .55c-4.12 0-7.453-.976-10-2.93-2.547-1.953-3.983-5.07-4.31-9.35h4.28a8.43 8.43 0 0 0 3.16 6.56 11.43 11.43 0 0 0 7.17 2.21 16 16 0 0 0 3.24-.34 10.25 10.25 0 0 0 3.09-1.15 7.61 7.61 0 0 0 2.35-2.08 5.11 5.11 0 0 0 .91-3.09 4.94 4.94 0 0 0-.64-2.62 5.65 5.65 0 0 0-1.74-1.77 11.19 11.19 0 0 0-2.48-1.19 31.2 31.2 0 0 0-2.82-.81l-5.52-1.23a29.8 29.8 0 0 1-3.87-1.26 12.4 12.4 0 0 1-3.1-1.76 7.56 7.56 0 0 1-2.07-2.59 9.56 9.56 0 0 1 .44-8.33 9.23 9.23 0 0 1 3.09-3.06 14.66 14.66 0 0 1 4.25-1.7 20.78 20.78 0 0 1 4.66-.54 17.28 17.28 0 0 1 4.93.68 11.09 11.09 0 0 1 4 2.11 10.34 10.34 0 0 1 2.76 3.53 12.71 12.71 0 0 1 1.15 5h-4.28a8.15 8.15 0 0 0-.84-3.47z"/><path d="M689.86 224.03l3.35 18.53h-2.55l-.86-5.59h-7.82l-3.25 5.59H676L687.15 224l2.71.03zm-.37 10.89l-1.38-8.71-5 8.71h6.38z" fill-rule="nonzero"/><path d="M718.69 237.19a9.87 9.87 0 0 1-.47 1.51 6.63 6.63 0 0 1-1.21 2 6.41 6.41 0 0 1-1.69 1.34 7.52 7.52 0 0 1-2.05.76c-.75.153-1.514.23-2.28.23-2.746 0-4.693-.69-5.84-2.07-1.13-1.38-1.43-3.37-.89-6l2.31-10.92h2.47l-2.44 11.5c-.42 1.82-.24 3.18.52 4.06a4.89 4.89 0 0 0 3.87 1.33 6.32 6.32 0 0 0 2.5-.42 4.05 4.05 0 0 0 1.57-1.18 5.74 5.74 0 0 0 1-1.84c.256-.775.47-1.562.64-2.36l2.34-11.13h2.47l-2.38 11.14c-.13.73-.29 1.4-.44 2.05zm9.88-13.16l6.63 15.37h.06l3.09-15.37h2.39l-3.92 18.53h-2.66l-6.57-15.26h-.06l-3.14 15.26H722l3.92-18.56zm18.8 0l-3.9 18.53H741l3.9-18.56z"/><path d="M749.747 231.002a11.31 11.31 0 0 1 2-3.6 9.53 9.53 0 0 1 7.48-3.4 8.07 8.07 0 0 1 3.24.63 7.22 7.22 0 0 1 2.44 1.75 7.38 7.38 0 0 1 1.53 2.61 9.46 9.46 0 0 1 .54 3.22 13.05 13.05 0 0 1-.69 4.22 11.25 11.25 0 0 1-2 3.58 9.68 9.68 0 0 1-3.14 2.49 9.37 9.37 0 0 1-4.18.92 7.87 7.87 0 0 1-5.89-2.12 8.25 8.25 0 0 1-2.06-6 13.16 13.16 0 0 1 .73-4.3zm2.1 6.78a5.38 5.38 0 0 0 1 1.91 4.52 4.52 0 0 0 1.7 1.23 6.06 6.06 0 0 0 2.43.45 6.37 6.37 0 0 0 3.25-.81 7.57 7.57 0 0 0 2.36-2.11 9.63 9.63 0 0 0 1.43-2.93 11.78 11.78 0 0 0 .48-3.31 8.45 8.45 0 0 0-.34-2.41 5.45 5.45 0 0 0-1-1.94 4.89 4.89 0 0 0-1.65-1.3 5.06 5.06 0 0 0-2.27-.48 6.7 6.7 0 0 0-3.39.82 7.46 7.46 0 0 0-2.41 2.12 9.21 9.21 0 0 0-1.44 2.95 11.88 11.88 0 0 0-.48 3.34 8.73 8.73 0 0 0 .29 2.5l.04-.03z" fill-rule="nonzero"/><path d="M775.58 224.03l6.63 15.37h.05l3.1-15.37h2.39l-3.93 18.53h-2.65l-6.58-15.26-3.19 15.26H769l3.93-18.56z"/><path d="M797.767 231.002a11.14 11.14 0 0 1 2-3.6 9.53 9.53 0 0 1 7.47-3.4 8 8 0 0 1 3.24.63c.929.403 1.76 1 2.44 1.75a7.55 7.55 0 0 1 1.54 2.61 9.71 9.71 0 0 1 .53 3.22 13.05 13.05 0 0 1-.69 4.22 11.42 11.42 0 0 1-2 3.58 9.62 9.62 0 0 1-3.15 2.49 9.32 9.32 0 0 1-4.17.92 7.87 7.87 0 0 1-5.89-2.12 8.21 8.21 0 0 1-2.07-6 13.16 13.16 0 0 1 .75-4.3zm2.11 6.78c.197.699.537 1.35 1 1.91a4.48 4.48 0 0 0 1.71 1.23 6 6 0 0 0 2.43.45 6.4 6.4 0 0 0 3.25-.81 7.54 7.54 0 0 0 2.35-2.11 9.41 9.41 0 0 0 1.43-2.93 11.78 11.78 0 0 0 .48-3.31 8.12 8.12 0 0 0-.34-2.41 5.43 5.43 0 0 0-1-1.94 4.89 4.89 0 0 0-1.65-1.3 5.1 5.1 0 0 0-2.28-.48 6.7 6.7 0 0 0-3.39.82 7.67 7.67 0 0 0-2.41 2.12 9.21 9.21 0 0 0-1.44 2.95 11.88 11.88 0 0 0-.48 3.34 8.38 8.38 0 0 0 .34 2.5v-.03z" fill-rule="nonzero"/><path d="M832.07 224l-.44 2.08h-9.75l-1.22 5.9h8.58l-.44 2.08h-8.58l-1.77 8.5H816l3.87-18.56z"/><path d="M850.18 224.014a5.94 5.94 0 0 1 4.09 1.27 4.91 4.91 0 0 1 1.42 3.85 6 6 0 0 1-.34 1.89 5.22 5.22 0 0 1-1.15 1.91 6.38 6.38 0 0 1-2.19 1.47 8.72 8.72 0 0 1-3.42.58h-5.51l-1.61 7.56H839l3.83-18.53h7.35zm-1.07 8.89a4.12 4.12 0 0 0 3.07-1.05 3.72 3.72 0 0 0 1-2.72 3.61 3.61 0 0 0-.25-1.44 2.42 2.42 0 0 0-.66-.94 2.59 2.59 0 0 0-1-.5 4 4 0 0 0-1.17-.16h-5.23l-1.43 6.81h5.67zm18.97-8.874c.765-.003 1.53.07 2.28.22a5.58 5.58 0 0 1 2 .77 4.06 4.06 0 0 1 1.37 1.45 4.65 4.65 0 0 1 .5 2.29 5 5 0 0 1-.31 1.78 5.16 5.16 0 0 1-.86 1.52 4.56 4.56 0 0 1-1.31 1.12 4.44 4.44 0 0 1-1.7.57v.06a2.41 2.41 0 0 1 1 .57c.27.259.481.573.62.92a4 4 0 0 1 .29 1.18 6.88 6.88 0 0 1 0 1.36c0 .41-.09.82-.16 1.23-.07.41-.12.82-.16 1.22a7.88 7.88 0 0 0 0 1.19 3 3 0 0 0 .34 1.11h-2.57a5.37 5.37 0 0 1-.21-1.53 11.08 11.08 0 0 1 .26-2.44 7.49 7.49 0 0 0 .12-2 2.64 2.64 0 0 0-.38-1.18 1.42 1.42 0 0 0-.7-.57 2.84 2.84 0 0 0-.83-.19h-6.48l-1.72 7.88H857l3.92-18.56 7.16.03zm-.93 8.55a6 6 0 0 0 2.35-.39 3.9 3.9 0 0 0 1.39-.94 3 3 0 0 0 .66-1.2 4.19 4.19 0 0 0 .17-1.13 2.83 2.83 0 0 0-.31-1.41 2.31 2.31 0 0 0-.82-.85 3.12 3.12 0 0 0-1.15-.43 7.56 7.56 0 0 0-1.36-.12h-5.12l-1.38 6.45 5.57.02zm9.607-1.659a10.94 10.94 0 0 1 2-3.6 9.82 9.82 0 0 1 3.22-2.4 9.72 9.72 0 0 1 4.26-.92 8 8 0 0 1 3.24.63 7.26 7.26 0 0 1 2.45 1.75 7.69 7.69 0 0 1 1.53 2.61 9.46 9.46 0 0 1 .53 3.22 13.05 13.05 0 0 1-.69 4.22 11.23 11.23 0 0 1-2 3.58 9.62 9.62 0 0 1-3.15 2.49 9.32 9.32 0 0 1-4.17.92 7.87 7.87 0 0 1-5.89-2.12 8.21 8.21 0 0 1-2.07-6 13.16 13.16 0 0 1 .74-4.38zm2.1 6.78a5.37 5.37 0 0 0 1 1.91 4.55 4.55 0 0 0 1.72 1.31 6 6 0 0 0 2.43.45 6.4 6.4 0 0 0 3.25-.81 7.54 7.54 0 0 0 2.35-2.11 9.41 9.41 0 0 0 1.43-2.93 11.78 11.78 0 0 0 .48-3.31 8.46 8.46 0 0 0-.33-2.41 5.61 5.61 0 0 0-1-1.94 4.89 4.89 0 0 0-1.65-1.3 5.1 5.1 0 0 0-2.28-.48 6.7 6.7 0 0 0-3.39.82 7.53 7.53 0 0 0-2.4 2.12 9.23 9.23 0 0 0-1.45 2.95 11.88 11.88 0 0 0-.48 3.34 8.73 8.73 0 0 0 .32 2.42v-.03z" fill-rule="nonzero"/><path d="M911.12 224l-.45 2.08h-9.77l-1.22 5.9h8.58l-.44 2.08h-8.58l-1.77 8.5H895l3.87-18.56zm16.56 0l-.41 2.08h-10.32l-1.25 5.9h9.62l-.42 2.08h-9.65l-1.35 6.47h10.5l-.47 2.08H911l3.93-18.56zm12.157 4.12a2.93 2.93 0 0 0-.86-1.19 3.18 3.18 0 0 0-1.36-.64 8.16 8.16 0 0 0-1.77-.18 6.12 6.12 0 0 0-1.43.17 5 5 0 0 0-1.39.53 3.2 3.2 0 0 0-1.06.94 2.36 2.36 0 0 0-.41 1.4 2.44 2.44 0 0 0 .87 2 3.51 3.51 0 0 0 1 .58c.384.164.778.304 1.18.42l2.5.68a11.63 11.63 0 0 1 1.66.58 5.13 5.13 0 0 1 1.43.91c.43.398.77.882 1 1.42a5.23 5.23 0 0 1 .37 2.1 4.63 4.63 0 0 1-.66 2.51 5.65 5.65 0 0 1-1.7 1.74 7.66 7.66 0 0 1-2.33 1 9.76 9.76 0 0 1-2.54.34 11.82 11.82 0 0 1-3.06-.38 6.37 6.37 0 0 1-2.38-1.15 4.88 4.88 0 0 1-1.48-2 6.37 6.37 0 0 1-.38-2.95h2.47a5 5 0 0 0 .29 2.11 3 3 0 0 0 1 1.37 3.9 3.9 0 0 0 1.59.74 8.84 8.84 0 0 0 2.06.23 7 7 0 0 0 1.7-.21 4.82 4.82 0 0 0 1.5-.64 3.35 3.35 0 0 0 1-1.1 3.09 3.09 0 0 0 .4-1.62 2.57 2.57 0 0 0-.26-1.21 2.53 2.53 0 0 0-.71-.85 4.33 4.33 0 0 0-1.06-.59 12.64 12.64 0 0 0-1.27-.41l-2.52-.68a9.5 9.5 0 0 1-1.59-.61 5 5 0 0 1-1.32-.94 4.1 4.1 0 0 1-.91-1.32 4.4 4.4 0 0 1-.34-1.81 4.46 4.46 0 0 1 .6-2.35 5.5 5.5 0 0 1 1.54-1.68 6.91 6.91 0 0 1 2.16-1 9 9 0 0 1 2.47-.38 9.62 9.62 0 0 1 2.61.35 6.46 6.46 0 0 1 2.17 1.06 4.85 4.85 0 0 1 1.47 1.84 5.6 5.6 0 0 1 .48 2.68h-2.47a4.61 4.61 0 0 0-.26-1.81zm17.989-.03a2.93 2.93 0 0 0-.86-1.19 3.16 3.16 0 0 0-1.37-.64 8 8 0 0 0-1.76-.18 6.12 6.12 0 0 0-1.43.17 4.83 4.83 0 0 0-1.39.53 3.2 3.2 0 0 0-1.06.94 2.3 2.3 0 0 0-.41 1.4c-.014.4.065.796.23 1.16.158.316.375.598.64.83a3.51 3.51 0 0 0 1 .58c.385.164.779.304 1.18.42l2.5.68a12.08 12.08 0 0 1 1.66.58 5.13 5.13 0 0 1 1.43.91 4 4 0 0 1 1 1.42c.27.666.4 1.381.38 2.1a4.63 4.63 0 0 1-.66 2.51 5.57 5.57 0 0 1-1.71 1.74 7.5 7.5 0 0 1-2.32 1 9.76 9.76 0 0 1-2.54.34 11.9 11.9 0 0 1-3.07-.38 6.39 6.39 0 0 1-2.37-1.15 5 5 0 0 1-1.49-2 6.51 6.51 0 0 1-.37-2.95h2.41a5.22 5.22 0 0 0 .28 2.11 3.2 3.2 0 0 0 1 1.37 4 4 0 0 0 1.6.74 8.84 8.84 0 0 0 2.06.23 7 7 0 0 0 1.7-.21 4.67 4.67 0 0 0 1.49-.64 3.28 3.28 0 0 0 1.06-1.1 3.09 3.09 0 0 0 .4-1.62 2.7 2.7 0 0 0-.26-1.21 2.53 2.53 0 0 0-.71-.85 4.33 4.33 0 0 0-1.06-.59c-.4-.15-.82-.29-1.27-.41l-2.52-.68a9.18 9.18 0 0 1-1.59-.61 5.24 5.24 0 0 1-1.33-.94 4.26 4.26 0 0 1-.91-1.32 4.57 4.57 0 0 1-.33-1.81 4.46 4.46 0 0 1 .6-2.35 5.38 5.38 0 0 1 1.54-1.68 6.71 6.71 0 0 1 2.16-1 9 9 0 0 1 2.46-.34 9.62 9.62 0 0 1 2.61.35 6.46 6.46 0 0 1 2.17 1.06 5 5 0 0 1 1.47 1.84 5.85 5.85 0 0 1 .48 2.68h-2.47a4.61 4.61 0 0 0-.25-1.84zM968.37 224l-3.9 18.56H962l3.9-18.56z"/><path d="M970.698 231.003a11.31 11.31 0 0 1 2-3.6 9.53 9.53 0 0 1 7.53-3.4 8 8 0 0 1 3.23.63 7.16 7.16 0 0 1 2.45 1.75 7.38 7.38 0 0 1 1.53 2.61 9.46 9.46 0 0 1 .54 3.22 13.05 13.05 0 0 1-.69 4.22 11.25 11.25 0 0 1-2 3.58 9.62 9.62 0 0 1-3.15 2.49 9.29 9.29 0 0 1-4.17.92 7.87 7.87 0 0 1-5.89-2.12 8.21 8.21 0 0 1-2.06-6 13.16 13.16 0 0 1 .68-4.3zm2.1 6.78a5.38 5.38 0 0 0 1 1.91 4.52 4.52 0 0 0 1.7 1.23 6.06 6.06 0 0 0 2.43.45 6.37 6.37 0 0 0 3.25-.81 7.43 7.43 0 0 0 2.35-2.11 9.19 9.19 0 0 0 1.43-2.93 11.44 11.44 0 0 0 .49-3.31 8.45 8.45 0 0 0-.34-2.41 5.61 5.61 0 0 0-1-1.94 4.89 4.89 0 0 0-1.65-1.3 5.09 5.09 0 0 0-2.27-.48 6.77 6.77 0 0 0-3.4.82 7.53 7.53 0 0 0-2.4 2.12 9.21 9.21 0 0 0-1.44 2.95 11.88 11.88 0 0 0-.48 3.34 8.73 8.73 0 0 0 .33 2.5v-.03z" fill-rule="nonzero"/><path d="M995.58 224.03l6.63 15.37 3.1-15.37h2.48l-4 18.53h-2.65l-6.58-15.26-3.16 15.26H989l3.93-18.56z"/><path d="M1020.86 224l3.35 18.56h-2.55l-.85-5.59h-7.83l-3.25 5.59H1007l11.15-18.56h2.71zm-.37 10.89l-1.37-8.71h-.04l-5 8.71h6.41z" fill-rule="nonzero"/><path d="M1033.37 224l-3.43 16.53h9.8l-.44 2.08H1027l3.9-18.56zm21.407 4.08a2.84 2.84 0 0 0-.86-1.19 3.12 3.12 0 0 0-1.36-.64 8.16 8.16 0 0 0-1.77-.18 6.12 6.12 0 0 0-1.43.17 5 5 0 0 0-1.39.53 3.07 3.07 0 0 0-1 .94 2.3 2.3 0 0 0-.42 1.4 2.44 2.44 0 0 0 .87 2 3.51 3.51 0 0 0 1 .58c.388.164.785.304 1.19.42l2.49.68c.57.151 1.128.345 1.67.58a5.44 5.44 0 0 1 1.43.91c.43.397.77.881 1 1.42a5.23 5.23 0 0 1 .37 2.1 4.63 4.63 0 0 1-.66 2.51 5.65 5.65 0 0 1-1.7 1.74 7.66 7.66 0 0 1-2.33 1 9.74 9.74 0 0 1-2.53.34 11.9 11.9 0 0 1-3.07-.38 6.37 6.37 0 0 1-2.38-1.15 5 5 0 0 1-1.48-2 6.37 6.37 0 0 1-.38-2.95h2.36a5.21 5.21 0 0 0 .29 2.11c.2.54.546 1.015 1 1.37a3.88 3.88 0 0 0 1.6.74 8.75 8.75 0 0 0 2 .23 7 7 0 0 0 1.7-.21 4.63 4.63 0 0 0 1.5-.64 3.35 3.35 0 0 0 1-1.1 3.09 3.09 0 0 0 .4-1.62 2.57 2.57 0 0 0-.26-1.21 2.53 2.53 0 0 0-.71-.85 4.27 4.27 0 0 0-1.05-.59c-.4-.15-.83-.29-1.28-.41l-2.52-.68a9.85 9.85 0 0 1-1.59-.61 5 5 0 0 1-1.32-.94 4.1 4.1 0 0 1-.91-1.32 4.4 4.4 0 0 1-.34-1.81 4.46 4.46 0 0 1 .6-2.35 5.41 5.41 0 0 1 1.55-1.68 6.76 6.76 0 0 1 2.15-1 9 9 0 0 1 2.46-.34 9.62 9.62 0 0 1 2.61.35 6.37 6.37 0 0 1 2.17 1.06 4.85 4.85 0 0 1 1.47 1.84 5.6 5.6 0 0 1 .48 2.68h-2.47a4.61 4.61 0 0 0-.15-1.85z"/></g></symbol><symbol viewBox="0 0 244 74" id="uft-logo-medium" xmlns="http://www.w3.org/2000/svg"><g fill="#fff" fill-rule="evenodd"><g fill-rule="nonzero"><path d="M56.593 24.663c-1.885 1.749-3.561 3.703-4.818 5.915 2.2-1.646 4.608-3.035 7.122-4.218h.052c5.342-2.52 11.207-4.063 16.915-4.886 5.865-.823 11.468-.874 16.18-.36 0 0-1.151-.823-2.775-1.852-3.194-2.109-8.169-5.298-9.268-5.246-5.97.411-16.286 4.063-23.408 10.647z"/><path d="M54.601 23.064a49.454 49.454 0 0 0-2.187 4.966 68.818 68.818 0 0 1 3.385-3.89c7.289-7.629 13.797-9.472 26.658-13.926 0 0-9.84-5.17-11.247-4.403-5.779 2.97-11.767 7.424-16.609 17.253z"/><path d="M47.3 19.01C41.947 6.752 25.569 1.91 25.569 1.91c6.72 4.738 13.806 14.163 16.693 23.176.735 1.802 1.365 3.76 1.995 6.128h6.089c.63-2.369 1.26-4.326 1.995-6.128C55.175 16.125 62.314 6.7 69.034 1.91c-.053 0-16.431 4.841-21.733 17.099zm-9.937 5.671c1.888 1.744 3.566 3.692 4.824 5.897-2.202-1.64-4.614-3.025-7.13-4.205h-.053c-5.349-2.563-11.221-4.102-16.937-4.922-5.82-.82-11.483-.872-16.15-.36 0 0 1.154-.82 2.78-1.845 3.198-2.102 8.18-5.282 9.28-5.23 5.926.461 16.308 4.102 23.386 10.665z"/><path d="M39.361 23.064a49.454 49.454 0 0 1 2.187 4.966 68.818 68.818 0 0 0-3.384-3.89c-7.29-7.629-13.798-9.472-26.658-13.926 0 0 9.84-5.17 11.246-4.403 5.78 2.97 11.767 7.424 16.61 17.253z"/><path d="M47.034 32.787h-3.872c-5.755-5.025-28.356-10.888-35.785-10.47-.21 0-.471.158-.733.367C4.5 24.307.68 29.96 0 30.431c19.985-1.57 33.326.838 39.604 2.46.838.21 1.518.42 2.093.576a11.09 11.09 0 0 1 1.413.471v1.1h7.743v-1.1a22.03 22.03 0 0 0 1.412-.47c.576-.158 1.308-.367 2.093-.577 6.33-1.622 19.62-4.03 39.604-2.46-.68-.47-4.499-6.124-6.592-7.747-.261-.21-.523-.366-.732-.366-7.43-.419-30.03 5.444-35.785 10.469zm-8.682 7.347V57.93c0 4.087-.158 8.07-3.37 11.174-2.687 2.587-6.9 3.518-10.692 3.518-3.74 0-8.006-.93-10.692-3.518-3.213-3.052-3.37-7.087-3.37-11.174V40.134h8.426v16.659c0 4.087.316 8.587 5.688 8.587s5.688-4.5 5.688-8.587v-16.66zm10.954 6.986v5.317h9.189v7.038h-9.19v12.511H40.91V40.134h18.537v7.038h-10.14zm26.992 24.866H68.11V47.12h-6.747v-6.986h21.733v7.038H76.35v24.814z"/><ellipse cx="46.981" cy="5.415" rx="4.794" ry="5.415"/></g><text font-family="HelveticaNeue-Light, Helvetica Neue" font-size="19" font-weight="300"><tspan x="100" y="49">United Federation </tspan><tspan x="100" y="64.253">of Teachers</tspan></text><text fill-opacity=".655" font-family="HelveticaNeue-LightItalic, Helvetica Neue" font-size="8.5" font-style="italic" font-weight="300"><tspan x="101" y="73">A UNION OF PROFESSIONALS</tspan></text></g></symbol><symbol viewBox="0 0 160 124" id="uft-logo-notext" xmlns="http://www.w3.org/2000/svg"><g fill="#FFF" fill-rule="evenodd"><path d="M96.032 41.905c-3.2 2.971-6.043 6.292-8.175 10.05 3.732-2.796 7.82-5.156 12.085-7.166h.089c9.063-4.283 19.015-6.904 28.701-8.303 9.952-1.398 19.46-1.486 27.458-.612 0 0-1.955-1.398-4.71-3.146-5.42-3.583-13.862-9.002-15.728-8.914-10.13.699-27.635 6.904-39.72 18.09v.001z"/><path d="M92.652 39.188a84.082 84.082 0 0 0-3.71 8.438c1.943-2.436 3.887-4.61 5.742-6.611 12.37-12.961 23.413-16.093 45.236-23.66 0 0-16.698-8.786-19.084-7.481-9.807 5.045-19.967 12.613-28.184 29.314z"/><path d="M80.264 32.299C71.178 11.473 43.386 3.247 43.386 3.247c11.402 8.05 23.427 24.064 28.327 39.377 1.247 3.063 2.316 6.388 3.385 10.414H85.43c1.069-4.026 2.138-7.35 3.385-10.414 4.81-15.225 16.924-31.239 28.326-39.377-.089 0-27.881 8.226-36.878 29.052h.001zm-16.863 9.637c3.203 2.962 6.05 6.273 8.186 10.02-3.737-2.789-7.83-5.141-12.1-7.145h-.09c-9.075-4.356-19.04-6.97-28.739-8.364-9.876-1.394-19.485-1.481-27.404-.61 0 0 1.957-1.394 4.716-3.136 5.427-3.573 13.88-8.974 15.748-8.887 10.054.784 27.672 6.97 39.683 18.122z"/><path d="M66.792 39.188a84.082 84.082 0 0 1 3.71 8.438c-1.943-2.436-3.887-4.61-5.742-6.611-12.37-12.961-23.414-16.093-45.236-23.66 0 0 16.698-8.786 19.084-7.481 9.807 5.045 19.967 12.613 28.184 29.314z"/><path d="M79.81 55.708h-6.569c-9.765-8.538-48.117-18.5-60.723-17.788-.356 0-.8.267-1.243.623C7.635 41.3 1.155 50.905 0 51.705c33.913-2.668 56.551 1.423 67.204 4.18 1.42.356 2.575.712 3.551.979.977.267 1.776.533 2.397.8v1.868h13.14v-1.868c.62-.178 1.42-.444 2.396-.8.977-.267 2.22-.623 3.551-.978 10.742-2.758 33.292-6.849 67.205-4.18-1.154-.801-7.635-10.406-11.186-13.163-.444-.356-.888-.623-1.243-.623-12.606-.711-50.958 9.25-60.724 17.788H79.81zM65.08 68.191V98.43c0 6.945-.269 13.713-5.72 18.987-4.559 4.395-11.708 5.978-18.143 5.978-6.346 0-13.585-1.583-18.143-5.978-5.451-5.186-5.72-12.042-5.72-18.987V68.191h14.3v28.305c0 6.944.536 14.591 9.652 14.591s9.652-7.647 9.652-14.591V68.19l14.122.001zM83.666 80.06v9.035H99.26v11.958H83.666v21.258H69.418v-54.12h31.455V80.15H83.666v-.09zm45.804 42.251h-13.896v-42.25h-11.447V68.19h36.878v11.96h-11.448v42.162l-.087-.001z"/><ellipse cx="79.722" cy="9.2" rx="8.135" ry="9.2"/></g></symbol><symbol viewBox="0 0 273 51" id="uft-logo-small" xmlns="http://www.w3.org/2000/svg"><g fill="#fff" fill-rule="evenodd"><g fill-rule="nonzero"><path d="M38.357 16.694c-1.278 1.183-2.413 2.507-3.265 4.004 1.49-1.115 3.123-2.055 4.827-2.855h.035c3.62-1.706 7.595-2.75 11.464-3.308 3.975-.557 7.773-.592 10.967-.244 0 0-.78-.557-1.88-1.253-2.166-1.427-5.538-3.586-6.283-3.551-4.046.278-11.038 2.75-15.865 7.207z"/><path d="M37.007 15.611a33.451 33.451 0 0 0-1.482 3.362 46.6 46.6 0 0 1 2.294-2.634c4.94-5.163 9.351-6.41 18.068-9.425 0 0-6.67-3.5-7.623-2.98-3.917 2.01-7.975 5.024-11.257 11.677z"/><path d="M32.06 12.867C28.43 4.57 17.33 1.294 17.33 1.294 21.882 4.5 26.686 10.88 28.642 16.98c.499 1.22.926 2.545 1.352 4.149h4.128c.427-1.604.854-2.928 1.352-4.149 1.921-6.065 6.76-12.444 11.314-15.686-.036 0-11.136 3.276-14.73 11.573zm-6.736 3.839c1.28 1.18 2.416 2.5 3.27 3.992-1.493-1.111-3.128-2.048-4.834-2.846h-.036c-3.624-1.736-7.605-2.777-11.478-3.332-3.945-.556-7.783-.59-10.946-.243 0 0 .782-.556 1.883-1.25 2.168-1.423 5.544-3.575 6.29-3.54 4.016.312 11.053 2.776 15.85 7.22z"/><path d="M26.678 15.611a33.451 33.451 0 0 1 1.482 3.362 46.6 46.6 0 0 0-2.294-2.634c-4.94-5.163-9.351-6.41-18.068-9.425 0 0 6.67-3.5 7.623-2.98 3.917 2.01 7.975 5.024 11.257 11.677z"/><path d="M31.878 22.192h-2.624c-3.9-3.4-19.219-7.37-24.254-7.086-.142 0-.32.107-.497.248C3.05 16.453.461 20.28 0 20.598c13.545-1.063 22.588.567 26.843 1.665.567.142 1.028.284 1.418.39s.71.213.957.319v.744h5.248v-.744c.249-.07.568-.177.958-.319.39-.106.886-.248 1.418-.39 4.29-1.098 13.297-2.728 26.843-1.665-.461-.319-3.05-4.145-4.468-5.244-.177-.141-.355-.248-.496-.248-5.036-.283-20.354 3.685-24.255 7.086zm-5.884 4.974v12.046c0 2.766-.107 5.463-2.285 7.564-1.82 1.75-4.676 2.38-7.246 2.38-2.535 0-5.426-.63-7.247-2.38-2.177-2.066-2.284-4.798-2.284-7.564V27.166h5.711V38.44c0 2.767.214 5.813 3.855 5.813 3.642 0 3.856-3.046 3.856-5.813V27.166zm7.424 4.728v3.6h6.228v4.763h-6.228v8.469h-5.691v-21.56H40.29v4.763h-6.872zm18.295 16.832h-5.55V31.894H41.59v-4.728h14.73v4.763h-4.573v16.797z"/><ellipse cx="31.842" cy="3.665" rx="3.249" ry="3.665"/></g><text font-family="HelveticaNeue-Light, Helvetica Neue" font-size="16" font-weight="300"><tspan x="66" y="42">United Federation of Teachers</tspan></text><text fill-opacity=".655" font-family="HelveticaNeue-LightItalic, Helvetica Neue" font-size="9" font-style="italic" font-weight="300"><tspan x="67" y="50">A UNION OF PROFESSIONALS</tspan></text></g></symbol></svg>